<svg width="32" height="32" viewBox="0 0 32 32" fill="none" xmlns="http://www.w3.org/2000/svg">
  <path d="M5.33398 10.6673L4.62688 11.3744L3.91977 10.6673L4.62688 9.96021L5.33398 10.6673ZM12.0007 26.334C11.4484 26.334 11.0007 25.8863 11.0007 25.334C11.0007 24.7817 11.4484 24.334 12.0007 24.334L12.0007 26.334ZM11.2935 18.0411L4.62688 11.3744L6.04109 9.96021L12.7078 16.6269L11.2935 18.0411ZM4.62688 9.96021L11.2935 3.29354L12.7078 4.70776L6.04109 11.3744L4.62688 9.96021ZM5.33398 9.66732L19.334 9.66732L19.334 11.6673L5.33398 11.6673L5.33398 9.66732ZM19.334 26.334L12.0007 26.334L12.0007 24.334L19.334 24.334L19.334 26.334ZM27.6673 18.0006C27.6673 22.603 23.9364 26.334 19.334 26.334L19.334 24.334C22.8318 24.334 25.6673 21.4985 25.6673 18.0006L27.6673 18.0006ZM19.334 9.66732C23.9364 9.66732 27.6673 13.3983 27.6673 18.0006L25.6673 18.0006C25.6673 14.5028 22.8318 11.6673 19.334 11.6673L19.334 9.66732Z" fill="white"/>
</svg>